<?xml version="1.0" encoding="utf-8"?>
<!-- Generator: Adobe Illustrator 22.1.0, SVG Export Plug-In . SVG Version: 6.00 Build 0)  -->
<svg version="1.1" id="Layer_1" xmlns="http://www.w3.org/2000/svg" xmlns:xlink="http://www.w3.org/1999/xlink" x="0px" y="0px"
	 viewBox="0 0 87.7 85.5" style="enable-background:new 0 0 87.7 85.5;" xml:space="preserve">
<style type="text/css">
	.st0{fill:#F7D50B;}
	.st1{fill:#313332;}
</style>
<g>
	<g>
		<path class="st0" d="M65.2,63c2.2-2.2,3.5-5,4-7.8c-2.4,4.5-5.9,8.4-10,11.4C61.4,65.9,63.5,64.7,65.2,63z"/>
		<path class="st0" d="M41.4,56.3v-6.6C40.9,51.9,40.9,54.1,41.4,56.3z"/>
		<path class="st0" d="M24.7,60.6c1.7,0.4,3.5,0.7,5.4,1c-0.6-1.6-0.9-3.3-1.2-5c-2.2-0.4-4.2-0.8-6.2-1.4
			c-1.3-4.2-2.1-8.9-2.3-13.8h10.9c0.8-1.6,1.8-3.2,2.9-4.7H20.4c0.2-5,1-9.8,2.3-14c4.2-1.3,9-2.1,14-2.3V34c1.4-1.4,3-2.6,4.7-3.6
			v-9.9c4.9,0.2,9.6,1,13.8,2.3c0.4,1.2,0.7,2.5,1,3.8c1.7,0.1,3.3,0.3,5,0.7c-0.2-0.8-0.3-1.7-0.5-2.5c3.6,1.6,13,7.5,17.3,14.8
			c0-0.2,0-0.4,0-0.6C78,17.5,60.5,0,39,0c0,0,0,0-0.1,0c0,0,0,0,0,0c-0.1,0-0.1,0-0.1,0C18.1,0.1,1.2,16.5,0.1,37
			c-0.1,0.6-0.1,1.3-0.1,2c0,0.7,0.1,1.3,0.1,2c1,20.5,17.9,36.8,38.7,37c0,0,0.1,0,0.1,0c0,0,0,0,0,0c0,0,0,0,0.1,0
			c2,0,3.9-0.1,5.8-0.4C41.8,76.2,29.2,72.4,24.7,60.6z M70.3,25c-3-2.5-6.9-4.5-11.3-6.1c-1.5-4.4-3.6-8.2-6-11.2
			C60.6,11.1,66.8,17.3,70.3,25z M41.4,5c4.7,1.2,8.9,5.7,11.8,12.2c-3.7-0.8-7.6-1.4-11.8-1.5V5z M36.7,5v10.7
			c-4.2,0.1-8.2,0.7-12,1.5C27.7,10.7,31.9,6.1,36.7,5z M24.8,7.8c-2.4,3-4.4,6.8-5.9,11.1c-4.3,1.5-8,3.5-11,5.9
			C11.3,17.3,17.3,11.2,24.8,7.8z M17.2,24.7c-0.9,3.7-1.4,7.7-1.5,12H5C6.1,31.9,10.7,27.7,17.2,24.7z M15.7,41.4
			c0.1,4.2,0.7,8.1,1.5,11.8C10.7,50.2,6.2,46,5,41.4H15.7z M7.9,53.1c3,2.4,6.7,4.4,11,5.9c1.5,4.3,3.5,8.1,5.9,11.1
			C17.3,66.7,11.3,60.6,7.9,53.1z"/>
	</g>
	<g>
		<g>
			<path class="st1" d="M86,75.8c2.2,2.2,2.2,5.8,0,8.1l0,0c-2.2,2.2-5.8,2.2-8.1,0L61.8,67.7c-2.2-2.2,5.8-10.3,8.1-8.1L86,75.8z"
				/>
		</g>
		<g>
			<path class="st1" d="M55.1,73.8c-5.6,0-10.8-2.2-14.7-6.1c-8.1-8.1-8.1-21.3,0-29.5c3.9-3.9,9.2-6.1,14.7-6.1
				c5.6,0,10.8,2.2,14.7,6.1c8.1,8.1,8.1,21.3,0,29.5C65.9,71.7,60.7,73.8,55.1,73.8z M55.1,41.9c-3,0-5.8,1.2-7.9,3.3
				c-4.3,4.3-4.3,11.4,0,15.7c2.1,2.1,4.9,3.3,7.9,3.3c3,0,5.8-1.2,7.9-3.3c4.3-4.3,4.3-11.4,0-15.7C60.9,43,58.1,41.9,55.1,41.9z"
				/>
		</g>
	</g>
</g>
</svg>
