<?xml version="1.0" encoding="utf-8"?>
<!-- Generator: Adobe Illustrator 22.1.0, SVG Export Plug-In . SVG Version: 6.00 Build 0)  -->
<svg version="1.1" id="Layer_1" xmlns="http://www.w3.org/2000/svg" xmlns:xlink="http://www.w3.org/1999/xlink" x="0px" y="0px"
	 viewBox="0 0 77.7 76.7" style="enable-background:new 0 0 77.7 76.7;" xml:space="preserve">
<style type="text/css">
	.st0{fill:#313332;}
	.st1{fill:#F7D50B;}
	.st2{fill:#E4E3E5;}
</style>
<g>
	<g>
		<g>
			<g id="Settings_1_">
				<g>
					<path class="st0" d="M38.4,55.2c-9.2,0-16.8-7.5-16.8-16.8c0-9.2,7.5-16.8,16.8-16.8c9.2,0,16.8,7.5,16.8,16.8
						c0,0.1,0,0.3,0,0.4h21.5c0-1.6,0-3.2-0.2-4.8c-0.1-1.1-1.4-1.9-2.5-1.9c-3.5,0-6.6-2.1-7.9-5.3c-1.3-3.3-0.5-7.1,2.1-9.5
						c0.8-0.7,0.9-2,0.2-2.9c-1.8-2.3-3.8-4.3-6.1-6.1c-0.9-0.7-2.2-0.6-2.9,0.2c-2.3,2.5-6.4,3.5-9.6,2.1c-3.3-1.4-5.4-4.7-5.2-8.3
						c0.1-1.1-0.8-2.1-1.9-2.2c-2.9-0.3-5.8-0.3-8.6,0c-1.1,0.1-1.9,1.1-1.9,2.2c0.1,3.6-2,6.8-5.2,8.2c-3.1,1.3-7.2,0.3-9.5-2.2
						c-0.8-0.8-2-0.9-2.9-0.2c-2.3,1.8-4.4,3.9-6.2,6.1c-0.7,0.9-0.6,2.2,0.2,2.9c2.7,2.4,3.5,6.3,2.1,9.6C9.5,30,6.2,32,2.5,32
						c-1.2,0-2.1,0.8-2.2,1.9c-0.3,2.9-0.3,5.8,0,8.7c0.1,1.1,1.4,1.9,2.5,1.9c3.3-0.1,6.6,2,7.9,5.3c1.3,3.3,0.5,7.1-2.1,9.5
						c-0.8,0.7-0.9,2-0.2,2.9c1.8,2.3,3.8,4.3,6.1,6.1c0.9,0.7,2.2,0.6,2.9-0.2c2.3-2.5,6.4-3.5,9.6-2.2c3.3,1.4,5.4,4.7,5.2,8.3
						c-0.1,1.1,0.8,2.1,1.9,2.2c1.5,0.2,2.9,0.3,4.4,0.3c0.1,0,0.1,0,0.2,0L38.4,55.2C38.4,55.2,38.4,55.2,38.4,55.2z"/>
				</g>
			</g>
			<path class="st1" d="M51.3,42.3C52.9,38,50,25.8,38.9,26.1c-0.5,0-1.5,0.3-0.5,1.2c2.4,2.1,3.6,3.3,4.3,3.9c2,1.9,0.8,7-1.3,9.3
				c-2.1,2.3-7.5,3-9.3,1.6c-1.1-0.8-2.5-2.3-3.7-3.5c-1.4-1.4-1.4,0-1.4,0.6c0.9,11,12.7,13.2,16.6,10.7c0,0,14.9,13.9,24,22.5
				c6.4,6.1,14-2.1,7.9-7.6C68,58.3,51.3,42.3,51.3,42.3z"/>
		</g>
		<path class="st2" d="M69.2,66.4c-0.8,0.8-2,0.8-2.8,0.1L46.9,48.4l2.7-2.9l19.5,18.1C69.9,64.4,70,65.6,69.2,66.4L69.2,66.4z"/>
	</g>
</g>
</svg>
