<?xml version="1.0" encoding="utf-8"?>
<!-- Generator: Adobe Illustrator 22.1.0, SVG Export Plug-In . SVG Version: 6.00 Build 0)  -->
<svg version="1.1" id="Layer_1" xmlns="http://www.w3.org/2000/svg" xmlns:xlink="http://www.w3.org/1999/xlink" x="0px" y="0px"
	 viewBox="0 0 89.1 87.6" style="enable-background:new 0 0 89.1 87.6;" xml:space="preserve">
<style type="text/css">
	.st0{fill:#F7D50B;}
	.st1{fill:#313332;}
</style>
<g>
	<g>
		<path class="st0" d="M13.7,46.4H1.6c-0.9,0-1.6-0.7-1.6-1.6c0-0.9,0.7-1.6,1.6-1.6h12.1c0.9,0,1.6,0.7,1.6,1.6
			C15.3,45.7,14.6,46.4,13.7,46.4z"/>
		<path class="st0" d="M11.3,71c-0.5,0-1-0.2-1.3-0.7c-0.5-0.7-0.3-1.7,0.4-2.2l9.9-7c0.7-0.5,1.7-0.3,2.2,0.4
			c0.5,0.7,0.3,1.7-0.4,2.2l-9.9,7C12,70.9,11.6,71,11.3,71z"/>
		<path class="st0" d="M18.9,27.3c-0.4,0-0.7-0.1-1-0.4L8.6,19c-0.7-0.6-0.7-1.6-0.2-2.2C9,16.1,10,16,10.7,16.6l9.2,7.9
			c0.7,0.6,0.7,1.6,0.2,2.2C19.8,27.1,19.3,27.3,18.9,27.3z"/>
		<path class="st0" d="M36.6,15c-0.7,0-1.4-0.5-1.5-1.2L32.4,1.9c-0.2-0.8,0.3-1.7,1.2-1.9c0.8-0.2,1.7,0.3,1.9,1.2l2.7,11.8
			c0.2,0.9-0.3,1.7-1.2,1.9C36.8,15,36.7,15,36.6,15z"/>
		<path class="st0" d="M58.1,15c-0.1,0-0.2,0-0.4,0c-0.9-0.2-1.4-1-1.2-1.9l2.7-11.8c0.2-0.9,1-1.4,1.9-1.2c0.9,0.2,1.4,1,1.2,1.9
			l-2.7,11.8C59.4,14.5,58.8,15,58.1,15z"/>
		<g>
			<path class="st0" d="M87.5,46.4H75.4c-0.9,0-1.6-0.7-1.6-1.6c0-0.9,0.7-1.6,1.6-1.6h12.1c0.9,0,1.6,0.7,1.6,1.6
				C89.1,45.7,88.4,46.4,87.5,46.4z"/>
			<path class="st0" d="M80.6,70c-0.3,0-0.6-0.1-0.9-0.3l-9.9-7c-0.7-0.5-0.9-1.5-0.4-2.2c0.5-0.7,1.5-0.9,2.2-0.4l9.9,7
				c0.7,0.5,0.9,1.5,0.4,2.2C81.6,69.7,81.1,70,80.6,70z"/>
			<path class="st0" d="M73,27.3c-0.4,0-0.9-0.2-1.2-0.6c-0.6-0.7-0.5-1.7,0.2-2.2l9.2-7.9c0.7-0.6,1.7-0.5,2.2,0.2
				c0.6,0.7,0.5,1.7-0.2,2.2L74,26.9C73.7,27.2,73.4,27.3,73,27.3z"/>
		</g>
	</g>
	<g>
		<path class="st1" d="M53.8,80.2c0,0-13.7,0-14.4,0c-0.7,0-1.3,0.5-1.3,1V84c0,0.4,0.3,0.8,0.8,0.9l7.2,2.6
			c0.2,0.1,0.4,0.1,0.6,0.1c0.2,0,0.4,0,0.6-0.1l7.2-2.7c0.5-0.2,0.8-0.5,0.8-0.9v-2.7C55.1,80.7,54.5,80.2,53.8,80.2z"/>
		<g>
			<path class="st0" d="M67,48.3c0-11.6-9.4-21-21-21c-11.6,0-21,9.4-21,21c0,4.7,1.5,9.1,4.4,12.8c0,0,0,0,0,0
				c6,8.3,4.5,12.3,4.5,12.3C34,73.5,34,74,34,74s0.1,1,0.7,1.3c0.2,0.1,0.4,0.1,0.6,0.1c0.5,0,18.3,0.3,21.7,0c0,0,0.1,0,0.1,0
				c0.3,0,0.4-0.1,0.4-0.1c0.3-0.1,0.9-1.3,0.9-1.3s-0.1-0.2-0.2-0.5c0,0-1.6-4.1,4.5-12.4C65.5,57.3,67,52.9,67,48.3z"/>
		</g>
		<path class="st1" d="M58.5,78.4v-1.1c0-1.8,0-3.3,0-3.3H34c0,0,0,1.5,0,3.3v1.1c0,1.8,1.5,3.3,3.3,3.3h18
			C57,81.6,58.5,80.2,58.5,78.4z"/>
	</g>
</g>
</svg>
